<mxfile host="app.diagrams.net" modified="2021-05-27T16:11:19.227Z" agent="5.0 (Windows NT 10.0; Win64; x64) AppleWebKit/537.36 (KHTML, like Gecko) Chrome/90.0.4430.212 Safari/537.36" etag="S9ZVMnJGTp6N2p_rKUeU" version="14.7.2" type="github">
  <diagram id="Q7b77jRgB2uKtB3-1XPE" name="Page-1">
    <mxGraphModel dx="960" dy="1593" grid="1" gridSize="10" guides="1" tooltips="1" connect="1" arrows="1" fold="1" page="1" pageScale="1" pageWidth="850" pageHeight="1100" math="0" shadow="0">
      <root>
        <mxCell id="0" />
        <mxCell id="1" parent="0" />
        <mxCell id="N8ksk5F44_cYfGmCDRu7-43" value="" style="rounded=0;whiteSpace=wrap;html=1;labelBackgroundColor=none;fillColor=#FFF2CC;" vertex="1" parent="1">
          <mxGeometry x="10" y="90" width="830" height="340" as="geometry" />
        </mxCell>
        <mxCell id="N8ksk5F44_cYfGmCDRu7-1" value="" style="whiteSpace=wrap;html=1;aspect=fixed;" vertex="1" parent="1">
          <mxGeometry x="210" y="220" width="180" height="180" as="geometry" />
        </mxCell>
        <mxCell id="N8ksk5F44_cYfGmCDRu7-2" value="&lt;h1&gt;&lt;span style=&quot;font-weight: normal&quot;&gt;convolute_image&lt;br&gt;&lt;/span&gt;&lt;/h1&gt;&lt;div&gt;&lt;font style=&quot;font-size: 12px&quot;&gt;&lt;span style=&quot;text-align: center&quot;&gt;with&amp;nbsp;&amp;nbsp;&lt;/span&gt;&lt;span style=&quot;text-align: center&quot;&gt;FILTER_SIZE=3 and IMG_SIZE=3&amp;nbsp;&lt;/span&gt;&lt;/font&gt;&lt;/div&gt;" style="text;html=1;strokeColor=none;fillColor=none;spacing=5;spacingTop=-20;whiteSpace=wrap;overflow=hidden;rounded=0;labelBackgroundColor=none;" vertex="1" parent="1">
          <mxGeometry x="280" y="-20" width="210" height="100" as="geometry" />
        </mxCell>
        <mxCell id="N8ksk5F44_cYfGmCDRu7-3" value="extract_window" style="text;html=1;strokeColor=none;fillColor=none;align=center;verticalAlign=middle;whiteSpace=wrap;rounded=0;labelBackgroundColor=none;rotation=-90;" vertex="1" parent="1">
          <mxGeometry x="280" y="300" width="40" height="20" as="geometry" />
        </mxCell>
        <mxCell id="N8ksk5F44_cYfGmCDRu7-4" value="" style="endArrow=classic;html=1;entryX=0.75;entryY=0;entryDx=0;entryDy=0;" edge="1" parent="1" target="N8ksk5F44_cYfGmCDRu7-1">
          <mxGeometry width="50" height="50" relative="1" as="geometry">
            <mxPoint x="345" y="150" as="sourcePoint" />
            <mxPoint x="340" y="150" as="targetPoint" />
          </mxGeometry>
        </mxCell>
        <mxCell id="N8ksk5F44_cYfGmCDRu7-5" value="Rest" style="text;html=1;strokeColor=none;fillColor=none;align=center;verticalAlign=middle;whiteSpace=wrap;rounded=0;labelBackgroundColor=none;" vertex="1" parent="1">
          <mxGeometry x="330" y="220" width="40" height="20" as="geometry" />
        </mxCell>
        <mxCell id="N8ksk5F44_cYfGmCDRu7-6" value="rst" style="text;html=1;strokeColor=none;fillColor=none;align=center;verticalAlign=middle;whiteSpace=wrap;rounded=0;labelBackgroundColor=none;" vertex="1" parent="1">
          <mxGeometry x="340" y="180" width="40" height="20" as="geometry" />
        </mxCell>
        <mxCell id="N8ksk5F44_cYfGmCDRu7-8" value="" style="endArrow=classic;html=1;entryX=0.352;entryY=0.006;entryDx=0;entryDy=0;entryPerimeter=0;" edge="1" parent="1" target="N8ksk5F44_cYfGmCDRu7-1">
          <mxGeometry width="50" height="50" relative="1" as="geometry">
            <mxPoint x="273" y="160" as="sourcePoint" />
            <mxPoint x="290" y="130" as="targetPoint" />
          </mxGeometry>
        </mxCell>
        <mxCell id="N8ksk5F44_cYfGmCDRu7-9" value="offset" style="text;html=1;strokeColor=none;fillColor=none;align=center;verticalAlign=middle;whiteSpace=wrap;rounded=0;labelBackgroundColor=none;" vertex="1" parent="1">
          <mxGeometry x="250" y="220" width="40" height="20" as="geometry" />
        </mxCell>
        <mxCell id="N8ksk5F44_cYfGmCDRu7-10" value="" style="endArrow=classic;html=1;entryX=0.008;entryY=0.877;entryDx=0;entryDy=0;entryPerimeter=0;" edge="1" parent="1" target="N8ksk5F44_cYfGmCDRu7-1">
          <mxGeometry width="50" height="50" relative="1" as="geometry">
            <mxPoint x="120" y="378" as="sourcePoint" />
            <mxPoint x="190" y="376" as="targetPoint" />
          </mxGeometry>
        </mxCell>
        <mxCell id="N8ksk5F44_cYfGmCDRu7-11" value="" style="endArrow=classic;html=1;entryX=0.002;entryY=0.699;entryDx=0;entryDy=0;entryPerimeter=0;" edge="1" parent="1" target="N8ksk5F44_cYfGmCDRu7-1">
          <mxGeometry width="50" height="50" relative="1" as="geometry">
            <mxPoint x="120" y="346" as="sourcePoint" />
            <mxPoint x="170" y="300" as="targetPoint" />
          </mxGeometry>
        </mxCell>
        <mxCell id="N8ksk5F44_cYfGmCDRu7-12" value="IMG_SIZE_in" style="text;html=1;strokeColor=none;fillColor=none;align=center;verticalAlign=middle;whiteSpace=wrap;rounded=0;labelBackgroundColor=none;" vertex="1" parent="1">
          <mxGeometry x="130" y="320" width="50" height="20" as="geometry" />
        </mxCell>
        <mxCell id="N8ksk5F44_cYfGmCDRu7-13" value="FILTER_SIZE_in" style="text;html=1;strokeColor=none;fillColor=none;align=center;verticalAlign=middle;whiteSpace=wrap;rounded=0;labelBackgroundColor=none;" vertex="1" parent="1">
          <mxGeometry x="130" y="360" width="40" height="20" as="geometry" />
        </mxCell>
        <mxCell id="N8ksk5F44_cYfGmCDRu7-14" value="" style="shape=flexArrow;endArrow=classic;html=1;entryX=-0.004;entryY=0.338;entryDx=0;entryDy=0;entryPerimeter=0;width=29;endSize=7.42;fillColor=#FFFFFF;" edge="1" parent="1" target="N8ksk5F44_cYfGmCDRu7-1">
          <mxGeometry width="50" height="50" relative="1" as="geometry">
            <mxPoint x="100" y="280" as="sourcePoint" />
            <mxPoint x="150" y="230" as="targetPoint" />
          </mxGeometry>
        </mxCell>
        <mxCell id="N8ksk5F44_cYfGmCDRu7-15" value="IMG(3*3*16 to 0)" style="text;html=1;strokeColor=none;fillColor=none;align=left;verticalAlign=middle;whiteSpace=wrap;rounded=0;labelBackgroundColor=none;" vertex="1" parent="1">
          <mxGeometry x="100" y="230" width="100" height="20" as="geometry" />
        </mxCell>
        <mxCell id="N8ksk5F44_cYfGmCDRu7-16" value="IMG" style="text;html=1;strokeColor=none;fillColor=none;align=center;verticalAlign=middle;whiteSpace=wrap;rounded=0;labelBackgroundColor=none;" vertex="1" parent="1">
          <mxGeometry x="220" y="270" width="40" height="20" as="geometry" />
        </mxCell>
        <mxCell id="N8ksk5F44_cYfGmCDRu7-17" value="IMG_Size" style="text;html=1;strokeColor=none;fillColor=none;align=center;verticalAlign=middle;whiteSpace=wrap;rounded=0;labelBackgroundColor=none;" vertex="1" parent="1">
          <mxGeometry x="220" y="340" width="40" height="20" as="geometry" />
        </mxCell>
        <mxCell id="N8ksk5F44_cYfGmCDRu7-18" value="Windo_size" style="text;html=1;strokeColor=none;fillColor=none;align=left;verticalAlign=middle;whiteSpace=wrap;rounded=0;labelBackgroundColor=none;" vertex="1" parent="1">
          <mxGeometry x="210" y="370" width="40" height="20" as="geometry" />
        </mxCell>
        <mxCell id="N8ksk5F44_cYfGmCDRu7-19" value="" style="shape=flexArrow;endArrow=classic;html=1;exitX=1;exitY=0.25;exitDx=0;exitDy=0;width=15;endSize=7.58;entryX=0;entryY=0.25;entryDx=0;entryDy=0;fillColor=#FFFFFF;" edge="1" parent="1" source="N8ksk5F44_cYfGmCDRu7-1" target="N8ksk5F44_cYfGmCDRu7-22">
          <mxGeometry width="50" height="50" relative="1" as="geometry">
            <mxPoint x="450" y="290" as="sourcePoint" />
            <mxPoint x="500" y="265" as="targetPoint" />
          </mxGeometry>
        </mxCell>
        <mxCell id="N8ksk5F44_cYfGmCDRu7-20" value="WINDOW(0)" style="text;html=1;strokeColor=none;fillColor=none;align=center;verticalAlign=middle;whiteSpace=wrap;rounded=0;labelBackgroundColor=none;" vertex="1" parent="1">
          <mxGeometry x="410" y="230" width="50" height="20" as="geometry" />
        </mxCell>
        <mxCell id="N8ksk5F44_cYfGmCDRu7-21" value="offset(0)" style="text;html=1;strokeColor=none;fillColor=none;align=left;verticalAlign=middle;whiteSpace=wrap;rounded=0;labelBackgroundColor=none;" vertex="1" parent="1">
          <mxGeometry x="220" y="160" width="40" height="20" as="geometry" />
        </mxCell>
        <mxCell id="N8ksk5F44_cYfGmCDRu7-22" value="" style="rounded=0;whiteSpace=wrap;html=1;labelBackgroundColor=none;" vertex="1" parent="1">
          <mxGeometry x="560" y="220" width="140" height="180" as="geometry" />
        </mxCell>
        <mxCell id="N8ksk5F44_cYfGmCDRu7-23" value="" style="endArrow=classic;html=1;entryX=0.375;entryY=0;entryDx=0;entryDy=0;entryPerimeter=0;" edge="1" parent="1" target="N8ksk5F44_cYfGmCDRu7-22">
          <mxGeometry width="50" height="50" relative="1" as="geometry">
            <mxPoint x="613" y="170" as="sourcePoint" />
            <mxPoint x="610" y="200" as="targetPoint" />
          </mxGeometry>
        </mxCell>
        <mxCell id="N8ksk5F44_cYfGmCDRu7-24" value="" style="shape=flexArrow;endArrow=classic;html=1;width=15;endSize=7.58;entryX=0.01;entryY=0.646;entryDx=0;entryDy=0;entryPerimeter=0;fillColor=#FFFFFF;" edge="1" parent="1" target="N8ksk5F44_cYfGmCDRu7-22">
          <mxGeometry width="50" height="50" relative="1" as="geometry">
            <mxPoint x="405" y="336" as="sourcePoint" />
            <mxPoint x="555" y="330" as="targetPoint" />
          </mxGeometry>
        </mxCell>
        <mxCell id="N8ksk5F44_cYfGmCDRu7-25" value="FILTER1" style="text;html=1;strokeColor=none;fillColor=none;align=center;verticalAlign=middle;whiteSpace=wrap;rounded=0;labelBackgroundColor=none;" vertex="1" parent="1">
          <mxGeometry x="470" y="300" width="50" height="20" as="geometry" />
        </mxCell>
        <mxCell id="N8ksk5F44_cYfGmCDRu7-27" value="img&lt;br&gt;window" style="text;html=1;strokeColor=none;fillColor=none;align=center;verticalAlign=middle;whiteSpace=wrap;rounded=0;labelBackgroundColor=none;" vertex="1" parent="1">
          <mxGeometry x="560" y="260" width="40" height="20" as="geometry" />
        </mxCell>
        <mxCell id="N8ksk5F44_cYfGmCDRu7-28" value="filter" style="text;html=1;strokeColor=none;fillColor=none;align=center;verticalAlign=middle;whiteSpace=wrap;rounded=0;labelBackgroundColor=none;" vertex="1" parent="1">
          <mxGeometry x="560" y="330" width="40" height="20" as="geometry" />
        </mxCell>
        <mxCell id="N8ksk5F44_cYfGmCDRu7-29" value="conv_window" style="text;html=1;strokeColor=none;fillColor=none;align=center;verticalAlign=middle;whiteSpace=wrap;rounded=0;labelBackgroundColor=none;rotation=-90;" vertex="1" parent="1">
          <mxGeometry x="610" y="300" width="40" height="20" as="geometry" />
        </mxCell>
        <mxCell id="N8ksk5F44_cYfGmCDRu7-30" value="" style="endArrow=classic;html=1;entryX=-0.006;entryY=0.907;entryDx=0;entryDy=0;entryPerimeter=0;" edge="1" parent="1" target="N8ksk5F44_cYfGmCDRu7-22">
          <mxGeometry width="50" height="50" relative="1" as="geometry">
            <mxPoint x="460" y="383" as="sourcePoint" />
            <mxPoint x="510" y="360" as="targetPoint" />
          </mxGeometry>
        </mxCell>
        <mxCell id="N8ksk5F44_cYfGmCDRu7-31" value="CLK" style="text;html=1;strokeColor=none;fillColor=none;align=center;verticalAlign=middle;whiteSpace=wrap;rounded=0;labelBackgroundColor=none;" vertex="1" parent="1">
          <mxGeometry x="510" y="360" width="40" height="20" as="geometry" />
        </mxCell>
        <mxCell id="N8ksk5F44_cYfGmCDRu7-32" value="CLK" style="text;html=1;strokeColor=none;fillColor=none;align=center;verticalAlign=middle;whiteSpace=wrap;rounded=0;labelBackgroundColor=none;" vertex="1" parent="1">
          <mxGeometry x="560" y="370" width="40" height="20" as="geometry" />
        </mxCell>
        <mxCell id="N8ksk5F44_cYfGmCDRu7-34" value="" style="endArrow=classic;html=1;exitX=1;exitY=0.545;exitDx=0;exitDy=0;exitPerimeter=0;" edge="1" parent="1" source="N8ksk5F44_cYfGmCDRu7-22">
          <mxGeometry width="50" height="50" relative="1" as="geometry">
            <mxPoint x="710" y="330" as="sourcePoint" />
            <mxPoint x="770" y="318" as="targetPoint" />
          </mxGeometry>
        </mxCell>
        <mxCell id="N8ksk5F44_cYfGmCDRu7-35" value="convoluted_img&lt;br&gt;(i*16+15downtoi*16)" style="text;html=1;strokeColor=none;fillColor=none;align=center;verticalAlign=middle;whiteSpace=wrap;rounded=0;labelBackgroundColor=none;" vertex="1" parent="1">
          <mxGeometry x="720" y="280" width="90" height="30" as="geometry" />
        </mxCell>
        <mxCell id="N8ksk5F44_cYfGmCDRu7-36" value="" style="endArrow=classic;html=1;exitX=1;exitY=0.75;exitDx=0;exitDy=0;" edge="1" parent="1" source="N8ksk5F44_cYfGmCDRu7-22">
          <mxGeometry width="50" height="50" relative="1" as="geometry">
            <mxPoint x="730" y="400" as="sourcePoint" />
            <mxPoint x="780" y="355" as="targetPoint" />
          </mxGeometry>
        </mxCell>
        <mxCell id="N8ksk5F44_cYfGmCDRu7-37" value="end_conv" style="text;html=1;strokeColor=none;fillColor=none;align=center;verticalAlign=middle;whiteSpace=wrap;rounded=0;labelBackgroundColor=none;" vertex="1" parent="1">
          <mxGeometry x="720" y="330" width="40" height="20" as="geometry" />
        </mxCell>
        <mxCell id="N8ksk5F44_cYfGmCDRu7-38" value="" style="endArrow=classic;html=1;entryX=0.75;entryY=0;entryDx=0;entryDy=0;" edge="1" parent="1" target="N8ksk5F44_cYfGmCDRu7-22">
          <mxGeometry width="50" height="50" relative="1" as="geometry">
            <mxPoint x="665" y="170" as="sourcePoint" />
            <mxPoint x="660" y="199" as="targetPoint" />
          </mxGeometry>
        </mxCell>
        <mxCell id="N8ksk5F44_cYfGmCDRu7-39" value="rst" style="text;html=1;strokeColor=none;fillColor=none;align=center;verticalAlign=middle;whiteSpace=wrap;rounded=0;labelBackgroundColor=none;" vertex="1" parent="1">
          <mxGeometry x="580" y="180" width="40" height="20" as="geometry" />
        </mxCell>
        <mxCell id="N8ksk5F44_cYfGmCDRu7-40" value="start" style="text;html=1;strokeColor=none;fillColor=none;align=center;verticalAlign=middle;whiteSpace=wrap;rounded=0;labelBackgroundColor=none;" vertex="1" parent="1">
          <mxGeometry x="630" y="180" width="40" height="20" as="geometry" />
        </mxCell>
        <mxCell id="N8ksk5F44_cYfGmCDRu7-41" value="start" style="text;html=1;strokeColor=none;fillColor=none;align=center;verticalAlign=middle;whiteSpace=wrap;rounded=0;labelBackgroundColor=none;" vertex="1" parent="1">
          <mxGeometry x="650" y="220" width="40" height="20" as="geometry" />
        </mxCell>
        <mxCell id="N8ksk5F44_cYfGmCDRu7-42" value="Rest" style="text;html=1;strokeColor=none;fillColor=none;align=center;verticalAlign=middle;whiteSpace=wrap;rounded=0;labelBackgroundColor=none;" vertex="1" parent="1">
          <mxGeometry x="590" y="220" width="40" height="20" as="geometry" />
        </mxCell>
        <mxCell id="N8ksk5F44_cYfGmCDRu7-46" value="&lt;h1 style=&quot;background-color: rgb(255 , 255 , 255)&quot;&gt;&lt;font style=&quot;font-size: 12px&quot;&gt;this unit can be duplicate dependent on&amp;nbsp; generic parameters&amp;nbsp;&lt;/font&gt;&lt;/h1&gt;" style="text;html=1;strokeColor=none;fillColor=#FFF2CC;spacing=5;spacingTop=-20;whiteSpace=wrap;overflow=hidden;rounded=0;labelBackgroundColor=none;" vertex="1" parent="1">
          <mxGeometry x="15" y="90" width="180" height="90" as="geometry" />
        </mxCell>
      </root>
    </mxGraphModel>
  </diagram>
</mxfile>
